<svg width="155" height="39" viewBox="0 0 155 39" fill="none" xmlns="http://www.w3.org/2000/svg">
<g clip-path="url(#clip0_375_2400)">
<path d="M26.5989 12.1689L25.969 12.7988L26.1304 12.9601L26.7602 12.3302C28.7194 14.3221 29.6939 16.9173 29.6939 19.513C29.6939 22.1328 28.6823 24.7636 26.6796 26.7769C24.6774 28.7897 22.0471 29.7909 19.4161 29.7909C16.7961 29.7909 14.1548 28.7791 12.1524 26.7767L12.1522 26.7765C10.1394 24.7743 9.13824 22.144 9.13824 19.513C9.13824 16.893 10.15 14.2517 12.1524 12.2493L12.1526 12.2491C14.1548 10.2363 16.7851 9.23517 19.4161 9.23517C22.0119 9.23517 24.6071 10.2097 26.5989 12.1689ZM25.4304 25.5273L25.4307 25.5271C27.0894 23.8574 27.9191 21.696 27.9191 19.513C27.9191 17.3303 27.0895 15.1579 25.4304 13.4987L25.4301 13.4985C23.7605 11.8397 21.5991 11.01 19.4161 11.01C17.2333 11.01 15.0609 11.8396 13.4018 13.4987L13.4015 13.499C11.7428 15.1686 10.9131 17.33 10.9131 19.513C10.9131 21.6958 11.7427 23.8682 13.4018 25.5273L13.4021 25.5276C15.0717 27.1863 17.2331 28.016 19.4161 28.016C21.5989 28.016 23.7713 27.1864 25.4304 25.5273Z" fill="url(#paint0_linear_375_2400)" stroke="url(#paint1_linear_375_2400)" stroke-width="0.228145"/>
<path d="M36.0005 13.8009L36.0001 13.7997C35.8388 13.3443 36.0847 12.8381 36.554 12.675C37.0126 12.5226 37.5163 12.7617 37.6684 13.2372L37.6692 13.2395C38.3651 15.2629 38.7183 17.3826 38.7183 19.5022C38.7183 24.4377 36.8341 29.3942 33.0658 33.1625C29.2975 36.9309 24.3517 38.8151 19.4162 38.8151C14.4808 38.8151 9.53496 36.9309 5.76661 33.1625C1.99825 29.3942 0.114072 24.4484 0.114072 19.5129C0.114072 14.5666 1.99829 9.62093 5.76649 5.86343L5.76672 5.8632C9.53502 2.08419 14.4807 0.20001 19.427 0.20001C21.5039 0.20001 23.5701 0.531886 25.5614 1.19566L25.5621 1.19588C26.0282 1.34806 26.2778 1.85323 26.1244 2.32275C25.9723 2.78866 25.4674 3.03823 24.998 2.88524C23.188 2.27834 21.3129 1.97487 19.427 1.97487C14.9396 1.97487 10.452 3.68752 7.02677 7.11271C3.60163 10.5378 1.88893 15.0147 1.88893 19.5022C1.88893 23.9896 3.60163 28.4665 7.02677 31.8916C10.4519 35.3167 14.9288 37.0294 19.4162 37.0294H19.4165C23.9035 37.0186 28.3803 35.3169 31.8055 31.8917C35.2415 28.4666 36.9433 23.9898 36.9435 19.492C36.9543 17.5619 36.629 15.6431 36.0005 13.8009Z" fill="url(#paint2_linear_375_2400)" stroke="url(#paint3_linear_375_2400)" stroke-width="0.228145"/>
<path d="M31.1457 7.86305L31.1284 7.80089L31.0663 7.78364L26.3794 6.48284L31.0663 5.18204L31.1284 5.1648L31.1457 5.10269L32.4465 0.425706L33.7473 5.10269L33.7646 5.16476L33.8266 5.18202L38.5036 6.48284L33.8266 7.78366L33.7645 7.80093L33.7473 7.86305L32.4465 12.5499L31.1457 7.86305Z" fill="url(#paint4_linear_375_2400)" stroke="url(#paint5_linear_375_2400)" stroke-width="0.228145"/>
</g>
<path d="M46.9735 10.8378H47.9927V16.4648H46.9735V10.8378ZM47.4831 9.75484C47.2849 9.75484 47.1186 9.69114 46.9841 9.56373C46.8567 9.43633 46.793 9.28061 46.793 9.09658C46.793 8.91255 46.8567 8.75683 46.9841 8.62943C47.1186 8.49495 47.2849 8.4277 47.4831 8.4277C47.6813 8.4277 47.8441 8.49141 47.9715 8.61881C48.106 8.73914 48.1732 8.89132 48.1732 9.07535C48.1732 9.26645 48.106 9.42925 47.9715 9.56373C47.8441 9.69114 47.6813 9.75484 47.4831 9.75484ZM52.9859 9.03288C53.9485 9.03288 54.7059 9.26292 55.258 9.72299C55.8101 10.1831 56.0861 10.8166 56.0861 11.6234C56.0861 12.4303 55.8101 13.0638 55.258 13.5239C54.7059 13.984 53.9485 14.214 52.9859 14.214H51.1491V16.4648H50.0874V9.03288H52.9859ZM52.9541 13.2903C53.6265 13.2903 54.1396 13.1488 54.4935 12.8656C54.8474 12.5754 55.0244 12.1614 55.0244 11.6234C55.0244 11.0855 54.8474 10.675 54.4935 10.3919C54.1396 10.1017 53.6265 9.95657 52.9541 9.95657H51.1491V13.2903H52.9541ZM60.6056 10.7847C61.3205 10.7847 61.8867 10.9935 62.3043 11.4111C62.729 11.8216 62.9413 12.4268 62.9413 13.2266V16.4648H61.9221V13.3434C61.9221 12.7984 61.7912 12.3879 61.5293 12.1118C61.2674 11.8358 60.8922 11.6978 60.4039 11.6978C59.8518 11.6978 59.4165 11.8606 59.098 12.1862C58.7794 12.5047 58.6202 12.9647 58.6202 13.5664V16.4648H57.6009V8.58696H58.6202V11.6341C58.8325 11.3651 59.1086 11.1563 59.4483 11.0077C59.7951 10.859 60.1809 10.7847 60.6056 10.7847ZM67.2688 16.5285C66.7096 16.5285 66.2071 16.4047 65.7612 16.1569C65.3153 15.9092 64.9649 15.5695 64.7101 15.1377C64.4623 14.6989 64.3385 14.2034 64.3385 13.6513C64.3385 13.0992 64.4623 12.6073 64.7101 12.1755C64.9649 11.7367 65.3153 11.397 65.7612 11.1563C66.2071 10.9086 66.7096 10.7847 67.2688 10.7847C67.828 10.7847 68.327 10.9086 68.7658 11.1563C69.2117 11.397 69.5586 11.7367 69.8063 12.1755C70.0611 12.6073 70.1885 13.0992 70.1885 13.6513C70.1885 14.2034 70.0611 14.6989 69.8063 15.1377C69.5586 15.5695 69.2117 15.9092 68.7658 16.1569C68.327 16.4047 67.828 16.5285 67.2688 16.5285ZM67.2688 15.6367C67.6298 15.6367 67.9518 15.5553 68.235 15.3925C68.5252 15.2226 68.7517 14.9891 68.9144 14.6918C69.0772 14.3874 69.1586 14.0406 69.1586 13.6513C69.1586 13.262 69.0772 12.9187 68.9144 12.6215C68.7517 12.3171 68.5252 12.0835 68.235 11.9207C67.9518 11.7579 67.6298 11.6765 67.2688 11.6765C66.9078 11.6765 66.5822 11.7579 66.292 11.9207C66.0089 12.0835 65.7824 12.3171 65.6125 12.6215C65.4497 12.9187 65.3683 13.262 65.3683 13.6513C65.3683 14.0406 65.4497 14.3874 65.6125 14.6918C65.7824 14.9891 66.0089 15.2226 66.292 15.3925C66.5822 15.5553 66.9078 15.6367 67.2688 15.6367ZM74.6027 10.7847C75.3176 10.7847 75.8838 10.9935 76.3015 11.4111C76.7261 11.8216 76.9385 12.4268 76.9385 13.2266V16.4648H75.9192V13.3434C75.9192 12.7984 75.7883 12.3879 75.5264 12.1118C75.2645 11.8358 74.8894 11.6978 74.401 11.6978C73.8489 11.6978 73.4136 11.8606 73.0951 12.1862C72.7766 12.5047 72.6173 12.9647 72.6173 13.5664V16.4648H71.5981V10.8378H72.5749V11.6872C72.7801 11.397 73.0562 11.174 73.403 11.0183C73.7569 10.8626 74.1568 10.7847 74.6027 10.7847ZM83.9414 13.6832C83.9414 13.761 83.9344 13.8637 83.9202 13.9911H79.3549C79.4186 14.4865 79.6344 14.8864 80.0025 15.1908C80.3776 15.4881 80.8413 15.6367 81.3933 15.6367C82.0658 15.6367 82.6072 15.4102 83.0178 14.9572L83.5805 15.6155C83.3257 15.9128 83.0071 16.1393 82.6249 16.295C82.2498 16.4507 81.8286 16.5285 81.3615 16.5285C80.7669 16.5285 80.2396 16.4082 79.7795 16.1676C79.3195 15.9198 78.962 15.5765 78.7072 15.1377C78.4595 14.6989 78.3356 14.2034 78.3356 13.6513C78.3356 13.1063 78.456 12.6144 78.6966 12.1755C78.9443 11.7367 79.2805 11.397 79.7052 11.1563C80.137 10.9086 80.6218 10.7847 81.1598 10.7847C81.6977 10.7847 82.1755 10.9086 82.5931 11.1563C83.0178 11.397 83.3469 11.7367 83.5805 12.1755C83.8211 12.6144 83.9414 13.1169 83.9414 13.6832ZM81.1598 11.6447C80.6714 11.6447 80.2609 11.7933 79.9282 12.0906C79.6026 12.3879 79.4115 12.7772 79.3549 13.2585H82.9647C82.9081 12.7843 82.7134 12.3985 82.3807 12.1012C82.0551 11.7969 81.6482 11.6447 81.1598 11.6447ZM49.9675 22.0329C50.9018 22.0329 51.6344 22.2558 52.1652 22.7018C52.6961 23.1406 52.9615 23.7528 52.9615 24.5385C52.9615 25.3171 52.6961 25.9294 52.1652 26.3753C51.6344 26.8141 50.9018 27.0335 49.9675 27.0335H47.8441V29.4648H47.3026V22.0329H49.9675ZM49.9675 26.5451C50.7602 26.5451 51.3654 26.3717 51.783 26.0249C52.2006 25.6781 52.4094 25.1826 52.4094 24.5385C52.4094 23.8944 52.2006 23.3989 51.783 23.0521C51.3654 22.6982 50.7602 22.5213 49.9675 22.5213H47.8441V26.5451H49.9675ZM57.4297 23.8803C58.1233 23.8803 58.6719 24.082 59.0753 24.4854C59.4788 24.8889 59.6805 25.4693 59.6805 26.2266V29.4648H59.1496V26.2691C59.1496 25.6462 58.9904 25.172 58.6719 24.8464C58.3604 24.5208 57.9216 24.358 57.3553 24.358C56.7042 24.358 56.191 24.5527 55.8159 24.942C55.4407 25.3313 55.2532 25.855 55.2532 26.5133V29.4648H54.7223V21.587H55.2532V25.08C55.4443 24.6978 55.7274 24.404 56.1025 24.1988C56.4777 23.9864 56.92 23.8803 57.4297 23.8803ZM64.0423 29.5073C63.5185 29.5073 63.0443 29.387 62.6196 29.1463C62.202 28.9057 61.8729 28.573 61.6322 28.1483C61.3915 27.7166 61.2712 27.2317 61.2712 26.6938C61.2712 26.1558 61.3915 25.6745 61.6322 25.2499C61.8729 24.8181 62.202 24.4819 62.6196 24.2412C63.0443 24.0006 63.5185 23.8803 64.0423 23.8803C64.5661 23.8803 65.0367 24.0006 65.4544 24.2412C65.879 24.4819 66.2117 24.8181 66.4524 25.2499C66.693 25.6745 66.8133 26.1558 66.8133 26.6938C66.8133 27.2317 66.693 27.7166 66.4524 28.1483C66.2117 28.573 65.879 28.9057 65.4544 29.1463C65.0367 29.387 64.5661 29.5073 64.0423 29.5073ZM64.0423 29.0295C64.467 29.0295 64.8456 28.9305 65.1783 28.7323C65.5181 28.5341 65.7835 28.258 65.9746 27.9041C66.1728 27.5502 66.2719 27.1468 66.2719 26.6938C66.2719 26.2408 66.1728 25.8373 65.9746 25.4834C65.7835 25.1295 65.5181 24.8535 65.1783 24.6553C64.8456 24.4571 64.467 24.358 64.0423 24.358C63.6176 24.358 63.2354 24.4571 62.8956 24.6553C62.563 24.8535 62.2975 25.1295 62.0994 25.4834C61.9082 25.8373 61.8127 26.2408 61.8127 26.6938C61.8127 27.1468 61.9082 27.5502 62.0994 27.9041C62.2975 28.258 62.563 28.5341 62.8956 28.7323C63.2354 28.9305 63.6176 29.0295 64.0423 29.0295ZM71.2101 29.1145C71.0756 29.2419 70.9057 29.341 70.7004 29.4118C70.5023 29.4755 70.2935 29.5073 70.074 29.5073C69.5927 29.5073 69.2211 29.3764 68.9592 29.1145C68.6974 28.8455 68.5664 28.4739 68.5664 27.9997V24.3793H67.5472V23.9227H68.5664V22.7124H69.0973V23.9227H70.8597V24.3793H69.0973V27.9466C69.0973 28.3076 69.1822 28.5836 69.3521 28.7747C69.529 28.9588 69.7874 29.0508 70.1271 29.0508C70.4739 29.0508 70.7606 28.9481 70.9871 28.7429L71.2101 29.1145ZM74.6594 29.5073C74.1356 29.5073 73.6614 29.387 73.2367 29.1463C72.8191 28.9057 72.4899 28.573 72.2493 28.1483C72.0086 27.7166 71.8883 27.2317 71.8883 26.6938C71.8883 26.1558 72.0086 25.6745 72.2493 25.2499C72.4899 24.8181 72.8191 24.4819 73.2367 24.2412C73.6614 24.0006 74.1356 23.8803 74.6594 23.8803C75.1831 23.8803 75.6538 24.0006 76.0714 24.2412C76.4961 24.4819 76.8288 24.8181 77.0695 25.2499C77.3101 25.6745 77.4304 26.1558 77.4304 26.6938C77.4304 27.2317 77.3101 27.7166 77.0695 28.1483C76.8288 28.573 76.4961 28.9057 76.0714 29.1463C75.6538 29.387 75.1831 29.5073 74.6594 29.5073ZM74.6594 29.0295C75.0841 29.0295 75.4627 28.9305 75.7954 28.7323C76.1351 28.5341 76.4006 28.258 76.5917 27.9041C76.7899 27.5502 76.889 27.1468 76.889 26.6938C76.889 26.2408 76.7899 25.8373 76.5917 25.4834C76.4006 25.1295 76.1351 24.8535 75.7954 24.6553C75.4627 24.4571 75.0841 24.358 74.6594 24.358C74.2347 24.358 73.8525 24.4571 73.5127 24.6553C73.1801 24.8535 72.9146 25.1295 72.7164 25.4834C72.5253 25.8373 72.4298 26.2408 72.4298 26.6938C72.4298 27.1468 72.5253 27.5502 72.7164 27.9041C72.9146 28.258 73.1801 28.5341 73.5127 28.7323C73.8525 28.9305 74.2347 29.0295 74.6594 29.0295ZM84.0674 23.9227V28.8703C84.0674 29.7904 83.8444 30.4699 83.3985 30.9088C82.9526 31.3476 82.2802 31.567 81.3812 31.567C80.8716 31.567 80.3903 31.4892 79.9373 31.3335C79.4843 31.1777 79.1198 30.9619 78.8438 30.6858L79.1304 30.2824C79.4065 30.5372 79.7391 30.7354 80.1284 30.8769C80.5177 31.0185 80.9318 31.0893 81.3706 31.0893C82.1067 31.0893 82.6517 30.9123 83.0057 30.5584C83.3596 30.2116 83.5365 29.6701 83.5365 28.934V27.9997C83.31 28.4031 82.995 28.7146 82.5916 28.934C82.1881 29.1534 81.7351 29.2631 81.2326 29.2631C80.7159 29.2631 80.2452 29.1499 79.8205 28.9234C79.4029 28.6898 79.0738 28.3677 78.8331 27.9572C78.5925 27.5467 78.4722 27.0831 78.4722 26.5664C78.4722 26.0497 78.5925 25.5861 78.8331 25.1755C79.0738 24.765 79.4029 24.4465 79.8205 24.22C80.2452 23.9935 80.7159 23.8803 81.2326 23.8803C81.7422 23.8803 82.2023 23.9935 82.6128 24.22C83.0233 24.4465 83.3383 24.765 83.5577 25.1755V23.9227H84.0674ZM81.2751 28.7853C81.7068 28.7853 82.0961 28.6933 82.4429 28.5093C82.7898 28.3182 83.0587 28.0563 83.2498 27.7236C83.448 27.3839 83.5471 26.9981 83.5471 26.5664C83.5471 26.1346 83.448 25.7524 83.2498 25.4197C83.0587 25.0871 82.7898 24.8287 82.4429 24.6447C82.0961 24.4536 81.7068 24.358 81.2751 24.358C80.8433 24.358 80.454 24.4536 80.1072 24.6447C79.7674 24.8287 79.4985 25.0871 79.3003 25.4197C79.1092 25.7524 79.0136 26.1346 79.0136 26.5664C79.0136 26.9981 79.1092 27.3839 79.3003 27.7236C79.4985 28.0563 79.7674 28.3182 80.1072 28.5093C80.454 28.6933 80.8433 28.7853 81.2751 28.7853ZM86.824 25.1331C86.9939 24.7296 87.2593 24.4217 87.6203 24.2094C87.9813 23.99 88.4201 23.8803 88.9368 23.8803V24.4005L88.8094 24.3899C88.1936 24.3899 87.7123 24.5845 87.3655 24.9738C87.0186 25.356 86.8452 25.8904 86.8452 26.577V29.4648H86.3144V23.9227H86.824V25.1331ZM92.2681 23.8803C92.9546 23.8803 93.482 24.0572 93.85 24.4111C94.2181 24.7579 94.4021 25.2711 94.4021 25.9506V29.4648H93.8925V28.4775C93.7155 28.803 93.4572 29.0579 93.1174 29.2419C92.7777 29.4188 92.3707 29.5073 91.8965 29.5073C91.2807 29.5073 90.7923 29.3622 90.4313 29.072C90.0774 28.7818 89.9005 28.3996 89.9005 27.9254C89.9005 27.4653 90.0633 27.0937 90.3888 26.8106C90.7215 26.5204 91.2488 26.3753 91.9708 26.3753H93.8712V25.9294C93.8712 25.4127 93.7297 25.0198 93.4466 24.7509C93.1705 24.4819 92.7635 24.3474 92.2256 24.3474C91.8575 24.3474 91.5036 24.4111 91.1639 24.5385C90.8312 24.6659 90.5481 24.8358 90.3145 25.0481L90.0491 24.6659C90.3251 24.4182 90.6578 24.2271 91.0471 24.0926C91.4364 23.951 91.8434 23.8803 92.2681 23.8803ZM91.9708 29.072C92.4309 29.072 92.8202 28.9658 93.1387 28.7535C93.4643 28.5412 93.7085 28.2333 93.8712 27.8298V26.7893H91.9814C91.4364 26.7893 91.04 26.8884 90.7923 27.0866C90.5516 27.2848 90.4313 27.5573 90.4313 27.9041C90.4313 28.2651 90.5658 28.5518 90.8348 28.7641C91.1037 28.9694 91.4824 29.072 91.9708 29.072ZM99.371 23.8803C99.8877 23.8803 100.355 24.0006 100.772 24.2412C101.19 24.4819 101.516 24.8146 101.749 25.2392C101.99 25.6639 102.11 26.1488 102.11 26.6938C102.11 27.2388 101.99 27.7272 101.749 28.1589C101.516 28.5836 101.19 28.9163 100.772 29.1569C100.355 29.3905 99.8877 29.5073 99.371 29.5073C98.8826 29.5073 98.4402 29.3941 98.0439 29.1676C97.6475 28.934 97.3396 28.6119 97.1202 28.2014V31.5246H96.5893V23.9227H97.0989V25.2286C97.3183 24.8039 97.6262 24.4748 98.0226 24.2412C98.4261 24.0006 98.8755 23.8803 99.371 23.8803ZM99.3391 29.0295C99.7638 29.0295 100.146 28.9305 100.486 28.7323C100.826 28.5341 101.091 28.258 101.282 27.9041C101.48 27.5502 101.579 27.1468 101.579 26.6938C101.579 26.2408 101.48 25.8373 101.282 25.4834C101.091 25.1295 100.826 24.8535 100.486 24.6553C100.146 24.4571 99.7638 24.358 99.3391 24.358C98.9145 24.358 98.5322 24.4571 98.1925 24.6553C97.8598 24.8535 97.5944 25.1295 97.3962 25.4834C97.2051 25.8373 97.1095 26.2408 97.1095 26.6938C97.1095 27.1468 97.2051 27.5502 97.3962 27.9041C97.5944 28.258 97.8598 28.5341 98.1925 28.7323C98.5322 28.9305 98.9145 29.0295 99.3391 29.0295ZM106.461 23.8803C107.155 23.8803 107.703 24.082 108.107 24.4854C108.51 24.8889 108.712 25.4693 108.712 26.2266V29.4648H108.181V26.2691C108.181 25.6462 108.022 25.172 107.703 24.8464C107.392 24.5208 106.953 24.358 106.387 24.358C105.736 24.358 105.222 24.5527 104.847 24.942C104.472 25.3313 104.285 25.855 104.285 26.5133V29.4648H103.754V21.587H104.285V25.08C104.476 24.6978 104.759 24.404 105.134 24.1988C105.509 23.9864 105.952 23.8803 106.461 23.8803ZM115.242 23.9227L112.397 30.2187C112.185 30.707 111.937 31.0539 111.654 31.2591C111.378 31.4644 111.049 31.567 110.666 31.567C110.412 31.567 110.171 31.5246 109.944 31.4396C109.725 31.3547 109.537 31.2308 109.382 31.068L109.647 30.6646C109.93 30.9548 110.274 31.0999 110.677 31.0999C110.946 31.0999 111.176 31.0256 111.367 30.8769C111.558 30.7283 111.735 30.4735 111.898 30.1125L112.195 29.4436L109.7 23.9227H110.263L112.482 28.8809L114.701 23.9227H115.242ZM121.253 29.5179C120.708 29.5179 120.188 29.4259 119.693 29.2419C119.204 29.0508 118.822 28.8066 118.546 28.5093L118.79 28.1059C119.052 28.3819 119.402 28.6084 119.841 28.7853C120.287 28.9552 120.754 29.0402 121.243 29.0402C121.95 29.0402 122.485 28.9057 122.846 28.6367C123.207 28.3677 123.387 28.0174 123.387 27.5856C123.387 27.2529 123.292 26.9875 123.101 26.7893C122.91 26.5912 122.672 26.439 122.389 26.3328C122.106 26.2266 121.724 26.1169 121.243 26.0037C120.698 25.8692 120.259 25.7382 119.926 25.6108C119.601 25.4834 119.321 25.2888 119.087 25.0269C118.861 24.7579 118.748 24.4005 118.748 23.9546C118.748 23.5936 118.843 23.2645 119.034 22.9672C119.225 22.6628 119.516 22.4222 119.905 22.2452C120.301 22.0683 120.793 21.9798 121.381 21.9798C121.791 21.9798 122.195 22.04 122.591 22.1603C122.987 22.2806 123.331 22.4434 123.621 22.6487L123.419 23.084C123.122 22.8787 122.793 22.723 122.432 22.6168C122.078 22.5106 121.728 22.4576 121.381 22.4576C120.694 22.4576 120.174 22.5956 119.82 22.8716C119.466 23.1477 119.289 23.5051 119.289 23.944C119.289 24.2766 119.385 24.5421 119.576 24.7402C119.767 24.9384 120.004 25.0906 120.287 25.1968C120.57 25.3029 120.956 25.4162 121.444 25.5365C121.989 25.671 122.425 25.8019 122.75 25.9294C123.076 26.0568 123.352 26.2514 123.578 26.5133C123.812 26.7681 123.929 27.1149 123.929 27.5538C123.929 27.9147 123.83 28.2439 123.632 28.5412C123.44 28.8384 123.143 29.0756 122.74 29.2525C122.336 29.4295 121.841 29.5179 121.253 29.5179ZM127.797 29.5073C127.259 29.5073 126.778 29.387 126.353 29.1463C125.929 28.9057 125.596 28.573 125.355 28.1483C125.115 27.7166 124.995 27.2317 124.995 26.6938C124.995 26.1488 125.115 25.6639 125.355 25.2392C125.596 24.8075 125.929 24.4748 126.353 24.2412C126.778 24.0006 127.259 23.8803 127.797 23.8803C128.243 23.8803 128.647 23.9687 129.008 24.1457C129.376 24.3156 129.673 24.5668 129.9 24.8995L129.507 25.1862C129.309 24.9101 129.061 24.7048 128.764 24.5704C128.473 24.4288 128.151 24.358 127.797 24.358C127.366 24.358 126.976 24.4571 126.63 24.6553C126.29 24.8464 126.021 25.1189 125.823 25.4728C125.632 25.8267 125.536 26.2337 125.536 26.6938C125.536 27.1539 125.632 27.5608 125.823 27.9147C126.021 28.2687 126.29 28.5447 126.63 28.7429C126.976 28.934 127.366 29.0295 127.797 29.0295C128.151 29.0295 128.473 28.9623 128.764 28.8278C129.061 28.6863 129.309 28.4775 129.507 28.2014L129.9 28.4881C129.673 28.8207 129.376 29.0756 129.008 29.2525C128.647 29.4224 128.243 29.5073 127.797 29.5073ZM134.103 23.8803C134.797 23.8803 135.345 24.082 135.749 24.4854C136.152 24.8889 136.354 25.4693 136.354 26.2266V29.4648H135.823V26.2691C135.823 25.6462 135.664 25.172 135.345 24.8464C135.034 24.5208 134.595 24.358 134.029 24.358C133.377 24.358 132.864 24.5527 132.489 24.942C132.114 25.3313 131.926 25.855 131.926 26.5133V29.4648H131.396V21.587H131.926V25.08C132.118 24.6978 132.401 24.404 132.776 24.1988C133.151 23.9864 133.593 23.8803 134.103 23.8803ZM140.716 29.5073C140.192 29.5073 139.718 29.387 139.293 29.1463C138.875 28.9057 138.546 28.573 138.305 28.1483C138.065 27.7166 137.944 27.2317 137.944 26.6938C137.944 26.1558 138.065 25.6745 138.305 25.2499C138.546 24.8181 138.875 24.4819 139.293 24.2412C139.718 24.0006 140.192 23.8803 140.716 23.8803C141.239 23.8803 141.71 24.0006 142.128 24.2412C142.552 24.4819 142.885 24.8181 143.126 25.2499C143.366 25.6745 143.487 26.1558 143.487 26.6938C143.487 27.2317 143.366 27.7166 143.126 28.1483C142.885 28.573 142.552 28.9057 142.128 29.1463C141.71 29.387 141.239 29.5073 140.716 29.5073ZM140.716 29.0295C141.14 29.0295 141.519 28.9305 141.852 28.7323C142.191 28.5341 142.457 28.258 142.648 27.9041C142.846 27.5502 142.945 27.1468 142.945 26.6938C142.945 26.2408 142.846 25.8373 142.648 25.4834C142.457 25.1295 142.191 24.8535 141.852 24.6553C141.519 24.4571 141.14 24.358 140.716 24.358C140.291 24.358 139.909 24.4571 139.569 24.6553C139.236 24.8535 138.971 25.1295 138.773 25.4834C138.581 25.8373 138.486 26.2408 138.486 26.6938C138.486 27.1468 138.581 27.5502 138.773 27.9041C138.971 28.258 139.236 28.5341 139.569 28.7323C139.909 28.9305 140.291 29.0295 140.716 29.0295ZM147.299 29.5073C146.776 29.5073 146.301 29.387 145.877 29.1463C145.459 28.9057 145.13 28.573 144.889 28.1483C144.649 27.7166 144.528 27.2317 144.528 26.6938C144.528 26.1558 144.649 25.6745 144.889 25.2499C145.13 24.8181 145.459 24.4819 145.877 24.2412C146.301 24.0006 146.776 23.8803 147.299 23.8803C147.823 23.8803 148.294 24.0006 148.711 24.2412C149.136 24.4819 149.469 24.8181 149.709 25.2499C149.95 25.6745 150.07 26.1558 150.07 26.6938C150.07 27.2317 149.95 27.7166 149.709 28.1483C149.469 28.573 149.136 28.9057 148.711 29.1463C148.294 29.387 147.823 29.5073 147.299 29.5073ZM147.299 29.0295C147.724 29.0295 148.103 28.9305 148.435 28.7323C148.775 28.5341 149.041 28.258 149.232 27.9041C149.43 27.5502 149.529 27.1468 149.529 26.6938C149.529 26.2408 149.43 25.8373 149.232 25.4834C149.041 25.1295 148.775 24.8535 148.435 24.6553C148.103 24.4571 147.724 24.358 147.299 24.358C146.875 24.358 146.492 24.4571 146.153 24.6553C145.82 24.8535 145.555 25.1295 145.356 25.4834C145.165 25.8373 145.07 26.2408 145.07 26.6938C145.07 27.1468 145.165 27.5502 145.356 27.9041C145.555 28.258 145.82 28.5341 146.153 28.7323C146.492 28.9305 146.875 29.0295 147.299 29.0295ZM151.717 21.587H152.248V29.4648H151.717V21.587Z" fill="white"/>
<defs>
<linearGradient id="paint0_linear_375_2400" x1="9.02417" y1="9.12109" x2="29.808" y2="29.9049" gradientUnits="userSpaceOnUse">
<stop stop-color="#ED1C24"/>
<stop offset="1" stop-color="#9B2686"/>
</linearGradient>
<linearGradient id="paint1_linear_375_2400" x1="9.02417" y1="9.12109" x2="29.808" y2="29.9049" gradientUnits="userSpaceOnUse">
<stop stop-color="#ED1C24"/>
<stop offset="1" stop-color="#9B2686"/>
</linearGradient>
<linearGradient id="paint2_linear_375_2400" x1="0" y1="0.0859375" x2="38.8432" y2="38.9184" gradientUnits="userSpaceOnUse">
<stop stop-color="#ED1C24"/>
<stop offset="1" stop-color="#9B2686"/>
</linearGradient>
<linearGradient id="paint3_linear_375_2400" x1="0" y1="0.0859375" x2="38.8432" y2="38.9184" gradientUnits="userSpaceOnUse">
<stop stop-color="#ED1C24"/>
<stop offset="1" stop-color="#9B2686"/>
</linearGradient>
<linearGradient id="paint4_linear_375_2400" x1="25.9529" y1="0" x2="38.9293" y2="12.9764" gradientUnits="userSpaceOnUse">
<stop stop-color="#ED1C24"/>
<stop offset="1" stop-color="#9B2686"/>
</linearGradient>
<linearGradient id="paint5_linear_375_2400" x1="25.9529" y1="0" x2="38.9293" y2="12.9764" gradientUnits="userSpaceOnUse">
<stop stop-color="#ED1C24"/>
<stop offset="1" stop-color="#9B2686"/>
</linearGradient>
<clipPath id="clip0_375_2400">
<rect width="38.9293" height="38.9293" fill="white"/>
</clipPath>
</defs>
</svg>
