<svg width="141" height="30" viewBox="0 0 141 30" fill="none" xmlns="http://www.w3.org/2000/svg">
<path d="M19.7249 28.3344C26.4015 28.3344 31.814 22.923 31.814 16.2478C31.814 9.5725 26.4015 4.16113 19.7249 4.16113C13.0482 4.16113 7.63574 9.5725 7.63574 16.2478C7.63574 22.923 13.0482 28.3344 19.7249 28.3344Z" stroke="#48484A" stroke-width="1.76952"/>
<path d="M19.58 24.3721C23.9777 24.3721 27.5428 20.8076 27.5428 16.4107C27.5428 12.0137 23.9777 8.44922 19.58 8.44922C15.1823 8.44922 11.6172 12.0137 11.6172 16.4107C11.6172 20.8076 15.1823 24.3721 19.58 24.3721Z" stroke="url(#paint0_linear_375_2401)" stroke-width="1.54833"/>
<path d="M15.1566 16.8526C15.1226 13.6091 16.597 11.9873 19.5798 11.9873" stroke="url(#paint1_linear_375_2401)" stroke-width="1.54833" stroke-linecap="round"/>
<path d="M3.87109 0.929688H10.4971" stroke="#48484A" stroke-width="1.76952" stroke-linecap="round"/>
<path d="M33.4791 4.18359C33.8243 4.18359 34.3523 4.18359 35.0632 4.18359C36.7734 4.18359 38.1598 5.51887 38.1598 7.16601V25.3744C38.1598 27.0216 36.7734 28.3568 35.0632 28.3568C28.269 28.3568 23.0809 28.3568 19.4988 28.3568" stroke="#48484A" stroke-width="1.76952" stroke-linecap="round"/>
<path d="M5.24014 28.3568C4.9816 28.3568 4.5938 28.3568 4.07672 28.3568C2.3775 28.3568 1 27.0216 1 25.3744V7.16601C1 5.51887 2.3775 4.18359 4.07672 4.18359C10.8588 4.18359 15.9454 4.18359 19.3365 4.18359" stroke="#48484A" stroke-width="1.76952" stroke-linecap="round"/>
<path d="M49.2511 10.7116C50.2137 10.7116 50.971 10.9416 51.5231 11.4017C52.0752 11.8618 52.3512 12.4953 52.3512 13.3022C52.3512 14.1091 52.0752 14.7425 51.5231 15.2026C50.971 15.6627 50.2137 15.8927 49.2511 15.8927H47.4143V18.1436H46.3526V10.7116H49.2511ZM49.2192 14.969C49.8916 14.969 50.4048 14.8275 50.7587 14.5444C51.1126 14.2542 51.2895 13.8401 51.2895 13.3022C51.2895 12.7642 51.1126 12.3537 50.7587 12.0706C50.4048 11.7804 49.8916 11.6353 49.2192 11.6353H47.4143V14.969H49.2192ZM56.8707 12.4634C57.5856 12.4634 58.1519 12.6722 58.5695 13.0898C58.9941 13.5003 59.2065 14.1055 59.2065 14.9053V18.1436H58.1872V15.0221C58.1872 14.4771 58.0563 14.0666 57.7944 13.7905C57.5325 13.5145 57.1574 13.3765 56.669 13.3765C56.1169 13.3765 55.6816 13.5393 55.3631 13.8649C55.0446 14.1834 54.8853 14.6435 54.8853 15.2451V18.1436H53.8661V10.2657H54.8853V13.3128C55.0977 13.0438 55.3737 12.835 55.7135 12.6864C56.0603 12.5377 56.446 12.4634 56.8707 12.4634ZM63.5339 18.2073C62.9748 18.2073 62.4722 18.0834 62.0263 17.8357C61.5804 17.5879 61.23 17.2482 60.9752 16.8164C60.7275 16.3776 60.6036 15.8821 60.6036 15.33C60.6036 14.7779 60.7275 14.286 60.9752 13.8542C61.23 13.4154 61.5804 13.0757 62.0263 12.835C62.4722 12.5873 62.9748 12.4634 63.5339 12.4634C64.0931 12.4634 64.5921 12.5873 65.031 12.835C65.4769 13.0757 65.8237 13.4154 66.0714 13.8542C66.3262 14.286 66.4536 14.7779 66.4536 15.33C66.4536 15.8821 66.3262 16.3776 66.0714 16.8164C65.8237 17.2482 65.4769 17.5879 65.031 17.8357C64.5921 18.0834 64.0931 18.2073 63.5339 18.2073ZM63.5339 17.3154C63.8949 17.3154 64.217 17.234 64.5001 17.0712C64.7903 16.9014 65.0168 16.6678 65.1796 16.3705C65.3424 16.0661 65.4238 15.7193 65.4238 15.33C65.4238 14.9407 65.3424 14.5974 65.1796 14.3002C65.0168 13.9958 64.7903 13.7622 64.5001 13.5994C64.217 13.4366 63.8949 13.3552 63.5339 13.3552C63.173 13.3552 62.8474 13.4366 62.5572 13.5994C62.2741 13.7622 62.0476 13.9958 61.8777 14.3002C61.7149 14.5974 61.6335 14.9407 61.6335 15.33C61.6335 15.7193 61.7149 16.0661 61.8777 16.3705C62.0476 16.6678 62.2741 16.9014 62.5572 17.0712C62.8474 17.234 63.173 17.3154 63.5339 17.3154ZM71.0271 17.8144C70.8785 17.9418 70.6945 18.0409 70.475 18.1117C70.2556 18.1754 70.0291 18.2073 69.7955 18.2073C69.2293 18.2073 68.7905 18.0551 68.479 17.7507C68.1676 17.4464 68.0119 17.0111 68.0119 16.4448V13.3552H67.0563V12.5165H68.0119V11.2849H69.0311V12.5165H70.6449V13.3552H69.0311V16.4024C69.0311 16.7067 69.1054 16.9403 69.2541 17.1031C69.4098 17.2659 69.6292 17.3473 69.9123 17.3473C70.2238 17.3473 70.4892 17.2588 70.7086 17.0818L71.0271 17.8144ZM74.4828 18.2073C73.9237 18.2073 73.4211 18.0834 72.9752 17.8357C72.5293 17.5879 72.1789 17.2482 71.9241 16.8164C71.6764 16.3776 71.5525 15.8821 71.5525 15.33C71.5525 14.7779 71.6764 14.286 71.9241 13.8542C72.1789 13.4154 72.5293 13.0757 72.9752 12.835C73.4211 12.5873 73.9237 12.4634 74.4828 12.4634C75.042 12.4634 75.541 12.5873 75.9798 12.835C76.4257 13.0757 76.7726 13.4154 77.0203 13.8542C77.2751 14.286 77.4025 14.7779 77.4025 15.33C77.4025 15.8821 77.2751 16.3776 77.0203 16.8164C76.7726 17.2482 76.4257 17.5879 75.9798 17.8357C75.541 18.0834 75.042 18.2073 74.4828 18.2073ZM74.4828 17.3154C74.8438 17.3154 75.1659 17.234 75.449 17.0712C75.7392 16.9014 75.9657 16.6678 76.1285 16.3705C76.2913 16.0661 76.3727 15.7193 76.3727 15.33C76.3727 14.9407 76.2913 14.5974 76.1285 14.3002C75.9657 13.9958 75.7392 13.7622 75.449 13.5994C75.1659 13.4366 74.8438 13.3552 74.4828 13.3552C74.1218 13.3552 73.7962 13.4366 73.506 13.5994C73.2229 13.7622 72.9964 13.9958 72.8266 14.3002C72.6638 14.5974 72.5824 14.9407 72.5824 15.33C72.5824 15.7193 72.6638 16.0661 72.8266 16.3705C72.9964 16.6678 73.2229 16.9014 73.506 17.0712C73.7962 17.234 74.1218 17.3154 74.4828 17.3154ZM84.195 12.5165V17.3791C84.195 18.363 83.9508 19.0885 83.4624 19.5556C82.974 20.0299 82.245 20.267 81.2753 20.267C80.7444 20.267 80.2383 20.1927 79.757 20.044C79.2757 19.9025 78.8864 19.6972 78.5891 19.4282L79.0775 18.6426C79.3394 18.8691 79.6615 19.046 80.0437 19.1734C80.433 19.3079 80.8329 19.3751 81.2434 19.3751C81.9017 19.3751 82.3865 19.2194 82.698 18.908C83.0165 18.5966 83.1757 18.1223 83.1757 17.4853V17.0394C82.9351 17.3296 82.6378 17.549 82.2839 17.6976C81.9371 17.8392 81.5584 17.91 81.1479 17.91C80.6099 17.91 80.1215 17.7967 79.6827 17.5702C79.2509 17.3367 78.9112 17.0146 78.6635 16.6041C78.4157 16.1865 78.2919 15.7122 78.2919 15.1814C78.2919 14.6505 78.4157 14.1798 78.6635 13.7693C78.9112 13.3517 79.2509 13.0297 79.6827 12.8032C80.1215 12.5767 80.6099 12.4634 81.1479 12.4634C81.5726 12.4634 81.9654 12.5413 82.3264 12.697C82.6944 12.8527 82.9952 13.0827 83.2288 13.3871V12.5165H84.195ZM81.2647 17.0181C81.6327 17.0181 81.9618 16.9403 82.252 16.7846C82.5493 16.6288 82.7794 16.413 82.9422 16.1369C83.112 15.8538 83.197 15.5353 83.197 15.1814C83.197 14.6364 83.0165 14.1975 82.6555 13.8649C82.2945 13.5251 81.8309 13.3552 81.2647 13.3552C80.6913 13.3552 80.2242 13.5251 79.8632 13.8649C79.5022 14.1975 79.3217 14.6364 79.3217 15.1814C79.3217 15.5353 79.4031 15.8538 79.5659 16.1369C79.7358 16.413 79.9658 16.6288 80.256 16.7846C80.5533 16.9403 80.8895 17.0181 81.2647 17.0181ZM87.1192 13.4614C87.2962 13.1358 87.5581 12.8881 87.9049 12.7182C88.2517 12.5483 88.6729 12.4634 89.1683 12.4634V13.4508C89.1117 13.4437 89.0339 13.4402 88.9348 13.4402C88.3827 13.4402 87.9474 13.6065 87.6289 13.9392C87.3174 14.2648 87.1617 14.7319 87.1617 15.3406V18.1436H86.1425V12.5165H87.1192V13.4614ZM92.4633 12.4634C93.2419 12.4634 93.8364 12.6545 94.247 13.0367C94.6646 13.4189 94.8734 13.9887 94.8734 14.7461V18.1436H93.9072V17.4004C93.7373 17.6622 93.4931 17.864 93.1746 18.0055C92.8632 18.14 92.4916 18.2073 92.0598 18.2073C91.4299 18.2073 90.9238 18.0551 90.5416 17.7507C90.1665 17.4464 89.9789 17.0465 89.9789 16.551C89.9789 16.0555 90.1594 15.6592 90.5204 15.3619C90.8813 15.0575 91.4547 14.9053 92.2403 14.9053H93.8541V14.7036C93.8541 14.2648 93.7267 13.9286 93.4719 13.695C93.2171 13.4614 92.842 13.3446 92.3465 13.3446C92.0138 13.3446 91.6882 13.4013 91.3697 13.5145C91.0512 13.6207 90.7822 13.7658 90.5628 13.9498L90.1381 13.1854C90.4283 12.9518 90.7752 12.7748 91.1786 12.6545C91.5821 12.5271 92.0103 12.4634 92.4633 12.4634ZM92.2297 17.4216C92.619 17.4216 92.9552 17.3367 93.2383 17.1668C93.5215 16.9898 93.7267 16.7421 93.8541 16.4236V15.6379H92.2828C91.4193 15.6379 90.9875 15.9281 90.9875 16.5085C90.9875 16.7916 91.0972 17.0146 91.3166 17.1774C91.5361 17.3402 91.8404 17.4216 92.2297 17.4216ZM99.743 12.4634C100.288 12.4634 100.776 12.5837 101.208 12.8244C101.64 13.065 101.976 13.4013 102.217 13.833C102.464 14.2648 102.588 14.7638 102.588 15.33C102.588 15.8963 102.464 16.3988 102.217 16.8377C101.976 17.2694 101.64 17.6056 101.208 17.8463C100.776 18.0869 100.288 18.2073 99.743 18.2073C99.3395 18.2073 98.9679 18.1294 98.6282 17.9737C98.2955 17.818 98.0124 17.5915 97.7788 17.2942V20.2033H96.7596V12.5165H97.7363V13.4083C97.9628 13.0969 98.2495 12.8633 98.5963 12.7076C98.9431 12.5448 99.3254 12.4634 99.743 12.4634ZM99.658 17.3154C100.019 17.3154 100.341 17.234 100.624 17.0712C100.914 16.9014 101.141 16.6678 101.304 16.3705C101.474 16.0661 101.558 15.7193 101.558 15.33C101.558 14.9407 101.474 14.5974 101.304 14.3002C101.141 13.9958 100.914 13.7622 100.624 13.5994C100.341 13.4366 100.019 13.3552 99.658 13.3552C99.3041 13.3552 98.9821 13.4402 98.6919 13.6101C98.4087 13.7729 98.1822 14.0029 98.0124 14.3002C97.8496 14.5974 97.7682 14.9407 97.7682 15.33C97.7682 15.7193 97.8496 16.0661 98.0124 16.3705C98.1752 16.6678 98.4017 16.9014 98.6919 17.0712C98.9821 17.234 99.3041 17.3154 99.658 17.3154ZM107.001 12.4634C107.716 12.4634 108.282 12.6722 108.7 13.0898C109.125 13.5003 109.337 14.1055 109.337 14.9053V18.1436H108.318V15.0221C108.318 14.4771 108.187 14.0666 107.925 13.7905C107.663 13.5145 107.288 13.3765 106.8 13.3765C106.247 13.3765 105.812 13.5393 105.494 13.8649C105.175 14.1834 105.016 14.6435 105.016 15.2451V18.1436H103.997V10.2657H105.016V13.3128C105.228 13.0438 105.504 12.835 105.844 12.6864C106.191 12.5377 106.577 12.4634 107.001 12.4634ZM116.099 12.5165L113.37 18.7063C113.13 19.2796 112.847 19.683 112.521 19.9166C112.203 20.1502 111.817 20.267 111.364 20.267C111.088 20.267 110.819 20.221 110.557 20.129C110.302 20.044 110.09 19.9166 109.92 19.7467L110.355 18.9823C110.645 19.2583 110.982 19.3964 111.364 19.3964C111.612 19.3964 111.817 19.3291 111.98 19.1946C112.149 19.0672 112.302 18.8443 112.436 18.5258L112.617 18.1329L110.132 12.5165H111.194L113.158 17.0181L115.101 12.5165H116.099ZM122.949 10.7116C123.911 10.7116 124.669 10.9416 125.221 11.4017C125.773 11.8618 126.049 12.4953 126.049 13.3022C126.049 14.1091 125.773 14.7425 125.221 15.2026C124.669 15.6627 123.911 15.8927 122.949 15.8927H121.112V18.1436H120.05V10.7116H122.949ZM122.917 14.969C123.589 14.969 124.102 14.8275 124.456 14.5444C124.81 14.2542 124.987 13.8401 124.987 13.3022C124.987 12.7642 124.81 12.3537 124.456 12.0706C124.102 11.7804 123.589 11.6353 122.917 11.6353H121.112V14.969H122.917ZM128.343 13.4614C128.52 13.1358 128.782 12.8881 129.129 12.7182C129.476 12.5483 129.897 12.4634 130.393 12.4634V13.4508C130.336 13.4437 130.258 13.4402 130.159 13.4402C129.607 13.4402 129.172 13.6065 128.853 13.9392C128.542 14.2648 128.386 14.7319 128.386 15.3406V18.1436H127.367V12.5165H128.343V13.4614ZM134.007 18.2073C133.448 18.2073 132.945 18.0834 132.499 17.8357C132.053 17.5879 131.703 17.2482 131.448 16.8164C131.201 16.3776 131.077 15.8821 131.077 15.33C131.077 14.7779 131.201 14.286 131.448 13.8542C131.703 13.4154 132.053 13.0757 132.499 12.835C132.945 12.5873 133.448 12.4634 134.007 12.4634C134.566 12.4634 135.065 12.5873 135.504 12.835C135.95 13.0757 136.297 13.4154 136.544 13.8542C136.799 14.286 136.927 14.7779 136.927 15.33C136.927 15.8821 136.799 16.3776 136.544 16.8164C136.297 17.2482 135.95 17.5879 135.504 17.8357C135.065 18.0834 134.566 18.2073 134.007 18.2073ZM134.007 17.3154C134.368 17.3154 134.69 17.234 134.973 17.0712C135.263 16.9014 135.49 16.6678 135.653 16.3705C135.815 16.0661 135.897 15.7193 135.897 15.33C135.897 14.9407 135.815 14.5974 135.653 14.3002C135.49 13.9958 135.263 13.7622 134.973 13.5994C134.69 13.4366 134.368 13.3552 134.007 13.3552C133.646 13.3552 133.32 13.4366 133.03 13.5994C132.747 13.7622 132.521 13.9958 132.351 14.3002C132.188 14.5974 132.107 14.9407 132.107 15.33C132.107 15.7193 132.188 16.0661 132.351 16.3705C132.521 16.6678 132.747 16.9014 133.03 17.0712C133.32 17.234 133.646 17.3154 134.007 17.3154Z" fill="#E4E6EB"/>
<defs>
<linearGradient id="paint0_linear_375_2401" x1="15.5986" y1="10.0777" x2="23.7403" y2="23.2877" gradientUnits="userSpaceOnUse">
<stop stop-color="#ED1C24"/>
<stop offset="1" stop-color="#9B2686"/>
</linearGradient>
<linearGradient id="paint1_linear_375_2401" x1="16.262" y1="12.4849" x2="18.8489" y2="16.3007" gradientUnits="userSpaceOnUse">
<stop stop-color="#ED1C24"/>
<stop offset="1" stop-color="#9B2686"/>
</linearGradient>
</defs>
</svg>
